<svg width="273" height="48" viewBox="0 0 273 48" fill="none" xmlns="http://www.w3.org/2000/svg">
    <path d="M65.6548 8.45455H73.6193L82.0312 28.9773H82.3892L90.8011 8.45455H98.7656V39H92.5014V19.1186H92.2479L84.343 38.8509H80.0774L72.1726 19.044H71.919V39H65.6548V8.45455Z" fill="#F1EBF6"/>
    <path d="M103.967 39V16.0909H110.321V39H103.967ZM107.159 13.1378C106.214 13.1378 105.404 12.8246 104.728 12.1982C104.062 11.5618 103.729 10.8011 103.729 9.91619C103.729 9.04119 104.062 8.29048 104.728 7.66406C105.404 7.0277 106.214 6.70952 107.159 6.70952C108.104 6.70952 108.909 7.0277 109.575 7.66406C110.251 8.29048 110.589 9.04119 110.589 9.91619C110.589 10.8011 110.251 11.5618 109.575 12.1982C108.909 12.8246 108.104 13.1378 107.159 13.1378Z" fill="#F1EBF6"/>
    <path d="M121.764 25.7557V39H115.411V16.0909H121.466V20.1328H121.734C122.241 18.8004 123.092 17.7464 124.285 16.9709C125.478 16.1854 126.925 15.7926 128.625 15.7926C130.216 15.7926 131.603 16.1406 132.786 16.8366C133.969 17.5327 134.889 18.527 135.545 19.8196C136.202 21.1023 136.53 22.6335 136.53 24.4134V39H130.176V25.5469C130.186 24.1449 129.828 23.0511 129.102 22.2656C128.376 21.4702 127.377 21.0724 126.104 21.0724C125.249 21.0724 124.494 21.2564 123.837 21.6243C123.191 21.9922 122.684 22.5291 122.316 23.2351C121.958 23.9311 121.774 24.7713 121.764 25.7557Z" fill="#F1EBF6"/>
    <path d="M149.979 39.3729C148.239 39.3729 146.663 38.9254 145.251 38.0305C143.849 37.1257 142.736 35.7983 141.91 34.0483C141.095 32.2884 140.687 30.1307 140.687 27.5753C140.687 24.9503 141.11 22.7678 141.955 21.0277C142.8 19.2777 143.924 17.9702 145.326 17.1051C146.738 16.2301 148.284 15.7926 149.964 15.7926C151.247 15.7926 152.316 16.0114 153.171 16.4489C154.036 16.8764 154.732 17.4134 155.259 18.0597C155.796 18.696 156.204 19.3224 156.482 19.9389H156.676V8.45455H163.015V39H156.751V35.331H156.482C156.184 35.9673 155.761 36.5987 155.214 37.2251C154.677 37.8416 153.976 38.3537 153.111 38.7614C152.256 39.169 151.212 39.3729 149.979 39.3729ZM151.993 34.3168C153.017 34.3168 153.882 34.0384 154.588 33.4815C155.304 32.9148 155.851 32.1243 156.229 31.1101C156.616 30.0959 156.81 28.9077 156.81 27.5455C156.81 26.1832 156.621 25 156.243 23.9957C155.866 22.9915 155.319 22.2159 154.603 21.669C153.887 21.1222 153.017 20.8487 151.993 20.8487C150.949 20.8487 150.069 21.1321 149.353 21.6989C148.637 22.2656 148.095 23.0511 147.727 24.0554C147.359 25.0597 147.175 26.223 147.175 27.5455C147.175 28.8778 147.359 30.0561 147.727 31.0803C148.105 32.0945 148.647 32.8899 149.353 33.4666C150.069 34.0334 150.949 34.3168 151.993 34.3168Z" fill="#F1EBF6"/>
    <path d="M172.758 39L166.523 16.0909H172.952L176.501 31.483H176.71L180.409 16.0909H186.718L190.477 31.3935H190.67L194.161 16.0909H200.574L194.354 39H187.628L183.69 24.5923H183.407L179.469 39H172.758Z" fill="#F1EBF6"/>
    <path d="M210.496 39.4325C209.034 39.4325 207.732 39.179 206.588 38.6719C205.445 38.1548 204.54 37.3942 203.874 36.3899C203.218 35.3757 202.889 34.1129 202.889 32.6016C202.889 31.3288 203.123 30.2599 203.59 29.3949C204.058 28.5298 204.694 27.8338 205.499 27.3068C206.305 26.7798 207.22 26.3821 208.244 26.1136C209.278 25.8452 210.362 25.6562 211.495 25.5469C212.828 25.4077 213.901 25.2784 214.717 25.1591C215.532 25.0298 216.124 24.8409 216.492 24.5923C216.86 24.3438 217.044 23.9759 217.044 23.4886V23.3991C217.044 22.4545 216.745 21.7237 216.149 21.2067C215.562 20.6896 214.727 20.4311 213.643 20.4311C212.499 20.4311 211.59 20.6847 210.914 21.1918C210.237 21.6889 209.79 22.3153 209.571 23.071L203.695 22.5938C203.993 21.2017 204.58 19.9986 205.455 18.9844C206.33 17.9602 207.458 17.1747 208.84 16.6278C210.232 16.071 211.843 15.7926 213.673 15.7926C214.945 15.7926 216.164 15.9418 217.327 16.2401C218.5 16.5384 219.539 17.0007 220.444 17.6271C221.359 18.2535 222.08 19.0589 222.607 20.0433C223.134 21.0178 223.397 22.1861 223.397 23.5483V39H217.372V35.8232H217.193C216.825 36.5391 216.333 37.1705 215.716 37.7173C215.1 38.2543 214.359 38.6768 213.494 38.9851C212.629 39.2834 211.629 39.4325 210.496 39.4325ZM212.316 35.0476C213.25 35.0476 214.075 34.8636 214.791 34.4957C215.507 34.1179 216.069 33.6108 216.477 32.9744C216.884 32.3381 217.088 31.6172 217.088 30.8118V28.3807C216.889 28.5099 216.616 28.6293 216.268 28.7386C215.93 28.8381 215.547 28.9325 215.119 29.022C214.692 29.1016 214.264 29.1761 213.837 29.2457C213.409 29.3054 213.021 29.3601 212.673 29.4098C211.928 29.5192 211.276 29.6932 210.72 29.9318C210.163 30.1705 209.73 30.4936 209.422 30.9013C209.114 31.299 208.96 31.7962 208.96 32.3928C208.96 33.2578 209.273 33.919 209.899 34.3764C210.536 34.8239 211.341 35.0476 212.316 35.0476Z" fill="#F1EBF6"/>
    <path d="M248.864 16.0909L240.855 39H233.696L225.687 16.0909H232.398L237.156 32.4822H237.395L242.138 16.0909H248.864Z" fill="#F1EBF6"/>
    <path d="M261.818 39.4474C259.461 39.4474 257.433 38.9702 255.732 38.0156C254.042 37.0511 252.74 35.6889 251.825 33.929C250.91 32.1591 250.453 30.066 250.453 27.6499C250.453 25.2933 250.91 23.2251 251.825 21.4453C252.74 19.6655 254.027 18.2784 255.688 17.2841C257.358 16.2898 259.317 15.7926 261.564 15.7926C263.075 15.7926 264.482 16.0362 265.785 16.5234C267.097 17.0007 268.241 17.7216 269.215 18.6861C270.2 19.6506 270.965 20.8636 271.512 22.3253C272.059 23.777 272.333 25.4773 272.333 27.4261V29.1712L256.732 29.1861L256.738 25.2337H266.352C266.352 24.3189 266.153 23.5085 265.755 22.8026C265.357 22.0966 264.806 21.5447 264.1 21.147C263.404 20.7393 262.593 20.5355 261.669 20.5355C260.704 20.5355 259.849 20.7592 259.103 21.2067C258.367 21.6442 257.791 22.2358 257.373 22.9815C256.955 23.7173 256.742 24.5376 256.732 25.4425V29.1861C256.732 30.3196 256.941 31.299 257.358 32.1243C257.786 32.9496 258.387 33.5859 259.163 34.0334C259.938 34.4808 260.858 34.7045 261.922 34.7045C262.628 34.7045 263.274 34.6051 263.861 34.4062C264.448 34.2074 264.95 33.9091 265.367 33.5114C265.785 33.1136 266.103 32.6264 266.322 32.0497L272.198 32.4375C271.9 33.8494 271.289 35.0824 270.364 36.1364C269.449 37.1804 268.266 37.9957 266.814 38.5824C265.372 39.1591 263.707 39.4474 261.818 39.4474Z" fill="#F1EBF6"/>
    <path d="M0 8C0 3.58172 3.58172 0 8 0H40C44.4183 0 48 3.58172 48 8V40C48 44.4183 44.4183 48 40 48H8C3.58172 48 0 44.4183 0 40V8Z" fill="url(#paint0_linear_606_44)"/>
    <path fill-rule="evenodd" clip-rule="evenodd" d="M18.5556 11.5C17.5094 11.5 16.5062 11.9156 15.7664 12.6553C15.0267 13.395 14.6111 14.3983 14.6111 15.4445V17.8835C14.8862 17.8503 15.1645 17.8334 15.4444 17.8334H16.2222C17.0506 17.8334 17.7222 18.5049 17.7222 19.3334C17.7222 20.1618 17.0506 20.8334 16.2222 20.8334H15.4444C14.3983 20.8334 13.395 21.2489 12.6553 21.9887C11.9156 22.7284 11.5 23.7317 11.5 24.7778C11.5 25.8239 11.9156 26.8272 12.6553 27.567C13.395 28.3067 14.3983 28.7223 15.4444 28.7223C16.2729 28.7223 16.9444 29.3938 16.9444 30.2223C16.9444 31.0507 16.2729 31.7223 15.4444 31.7223C15.1645 31.7223 14.8862 31.7054 14.6111 31.6721V32.5555C14.6111 33.6017 15.0267 34.605 15.7664 35.3447C16.5061 36.0844 17.5094 36.5 18.5555 36.5C19.6017 36.5 20.6049 36.0844 21.3447 35.3447C22.0844 34.6049 22.5 33.6017 22.5 32.5555V31C22.5 29.9539 22.0844 28.9506 21.3447 28.2108C20.6049 27.4711 19.6017 27.0555 18.5555 27.0555C17.7271 27.0555 17.0555 26.384 17.0555 25.5555C17.0555 24.7271 17.7271 24.0555 18.5555 24.0555C19.9743 24.0555 21.3484 24.4897 22.5 25.2845L22.5 15.4445C22.5 14.3983 22.0844 13.395 21.3447 12.6553C20.605 11.9156 19.6017 11.5 18.5556 11.5ZM24 11.1336C23.8345 10.9246 23.6564 10.7243 23.466 10.534C22.1637 9.23165 20.3973 8.5 18.5556 8.5C16.7138 8.5 14.9474 9.23165 13.6451 10.534C12.3428 11.8363 11.6111 13.6027 11.6111 15.4445V18.9872C11.2263 19.2419 10.8652 19.5362 10.534 19.8673C9.23164 21.1697 8.5 22.936 8.5 24.7778C8.5 26.6196 9.23164 28.3859 10.534 29.6883C10.8651 30.0194 11.2263 30.3137 11.6111 30.5684V32.5555C11.6111 34.3973 12.3427 36.1637 13.6451 37.466C14.9474 38.7684 16.7137 39.5 18.5555 39.5C20.3973 39.5 22.1637 38.7684 23.466 37.466C23.6563 37.2757 23.8345 37.0754 24 36.8664C24.1655 37.0754 24.3436 37.2757 24.534 37.466C25.8363 38.7684 27.6027 39.5 29.4444 39.5C31.2862 39.5 33.0526 38.7684 34.3549 37.466C35.6572 36.1637 36.3889 34.3973 36.3889 32.5555V30.5685C36.7737 30.3137 37.1349 30.0195 37.4661 29.6883C38.7684 28.3859 39.5001 26.6196 39.5001 24.7778C39.5001 22.936 38.7684 21.1697 37.4661 19.8673C37.1349 19.5361 36.7737 19.2419 36.3889 18.9871V15.4445C36.3889 13.6027 35.6572 11.8363 34.3549 10.534C33.0526 9.23165 31.2862 8.5 29.4444 8.5C27.6026 8.5 25.8363 9.23165 24.534 10.534C24.3436 10.7243 24.1655 10.9246 24 11.1336ZM33.3889 17.8835V15.4445C33.3889 14.3983 32.9733 13.395 32.2336 12.6553C31.4938 11.9156 30.4906 11.5 29.4444 11.5C28.3983 11.5 27.395 11.9156 26.6553 12.6553C25.9156 13.395 25.5 14.3983 25.5 15.4445L25.5 25.2845C26.6516 24.4897 28.0257 24.0555 29.4444 24.0555C30.2729 24.0555 30.9444 24.7271 30.9444 25.5555C30.9444 26.384 30.2729 27.0555 29.4444 27.0555C28.3983 27.0555 27.395 27.4711 26.6553 28.2108C25.9156 28.9506 25.5 29.9538 25.5 31V32.5555C25.5 33.6017 25.9156 34.605 26.6553 35.3447C27.395 36.0844 28.3983 36.5 29.4444 36.5C30.4906 36.5 31.4939 36.0844 32.2336 35.3447C32.9733 34.605 33.3889 33.6017 33.3889 32.5555V31.6721C33.1138 31.7054 32.8356 31.7223 32.5556 31.7223C31.7272 31.7223 31.0556 31.0507 31.0556 30.2223C31.0556 29.3938 31.7272 28.7223 32.5556 28.7223C33.6017 28.7223 34.605 28.3067 35.3447 27.567C36.0845 26.8272 36.5001 25.8239 36.5001 24.7778C36.5001 23.7317 36.0845 22.7284 35.3447 21.9887C34.605 21.2489 33.6017 20.8334 32.5556 20.8334H31.7778C30.9494 20.8334 30.2778 20.1618 30.2778 19.3334C30.2778 18.5049 30.9494 17.8334 31.7778 17.8334H32.5556C32.8356 17.8334 33.1138 17.8503 33.3889 17.8835Z" fill="#F1EBF6"/>
    <defs>
        <linearGradient id="paint0_linear_606_44" x1="136.166" y1="0" x2="136.166" y2="48" gradientUnits="userSpaceOnUse">
            <stop stop-color="#B27BC0"/>
            <stop offset="1" stop-color="#884299"/>
        </linearGradient>
    </defs>
</svg>
