<?xml version="1.0" standalone="no"?>
<!DOCTYPE svg PUBLIC "-//W3C//DTD SVG 20010904//EN"
 "http://www.w3.org/TR/2001/REC-SVG-20010904/DTD/svg10.dtd">
<svg version="1.0" xmlns="http://www.w3.org/2000/svg"
 width="512.000000pt" height="512.000000pt" viewBox="0 0 512.000000 512.000000"
 preserveAspectRatio="xMidYMid meet">
<metadata>
Created by potrace 1.14, written by Peter Selinger 2001-2017
</metadata>
<g transform="translate(0.000000,512.000000) scale(0.100000,-0.100000)"
fill="#000000" stroke="none">
<path d="M760 5113 c-154 -25 -259 -62 -364 -130 -176 -114 -296 -276 -363
-490 l-28 -88 -3 -1805 c-2 -1243 1 -1827 8 -1874 29 -187 103 -329 245 -471
141 -141 281 -215 465 -244 90 -15 3590 -15 3680 0 184 29 324 103 465 244
142 142 216 284 245 471 7 47 10 630 8 1869 -3 1675 -5 1805 -21 1865 -84 314
-292 529 -604 627 l-88 28 -1810 1 c-995 1 -1821 0 -1835 -3z m1365 -914 c131
-23 284 -105 383 -206 l54 -56 41 46 c132 144 330 228 537 228 331 0 596 -194
711 -521 21 -60 23 -86 27 -331 l4 -266 27 -16 c48 -28 167 -162 206 -231 65
-117 87 -195 92 -336 5 -105 2 -139 -15 -207 -40 -157 -125 -295 -244 -394
l-63 -52 -6 -176 c-7 -195 -21 -259 -85 -381 -182 -349 -615 -489 -979 -316
-74 35 -169 105 -222 165 l-33 36 -32 -36 c-95 -105 -247 -193 -392 -224 -106
-24 -283 -16 -376 15 -258 87 -434 276 -500 534 -16 62 -20 112 -20 230 l0
151 -54 42 c-73 56 -157 160 -200 247 -107 216 -102 476 12 690 38 71 169 220
216 245 l26 14 0 236 c0 202 3 248 20 320 38 159 148 326 273 415 186 133 366
174 592 135z"/>
<path d="M1877 3880 c-97 -25 -205 -105 -254 -187 -50 -86 -63 -151 -63 -321
l0 -157 114 0 c125 0 144 -7 190 -69 29 -38 29 -140 1 -178 -35 -47 -85 -68
-162 -68 -271 0 -456 -155 -470 -393 -9 -142 32 -243 137 -341 70 -64 139 -93
253 -106 97 -11 138 -35 168 -96 37 -77 15 -150 -61 -202 -26 -18 -47 -22
-103 -22 l-69 0 4 -97 c3 -84 8 -108 35 -165 78 -166 226 -256 408 -246 99 5
190 44 263 112 97 91 132 193 132 386 0 183 -28 275 -111 365 -76 83 -188 135
-289 135 -54 0 -125 33 -153 72 -30 40 -34 116 -8 165 31 63 73 83 167 83 124
0 206 -26 387 -118 11 -6 9 1057 -3 1119 -24 128 -116 245 -237 301 -57 27
-81 32 -153 35 -47 1 -102 -2 -123 -7z"/>
<path d="M3037 3880 c-98 -25 -201 -102 -254 -191 -62 -104 -63 -116 -63 -717
0 -299 3 -542 8 -540 4 2 40 20 81 41 93 49 204 77 299 77 130 0 187 -47 187
-155 0 -107 -49 -150 -188 -165 -190 -22 -338 -151 -376 -328 -18 -88 -14
-300 8 -371 39 -125 112 -209 229 -264 62 -30 75 -32 172 -32 98 0 109 2 177
34 90 42 162 114 205 207 26 57 32 82 36 165 l5 99 -70 0 c-56 0 -77 4 -103
23 -76 51 -98 124 -61 201 30 61 71 85 168 96 135 15 204 50 290 144 65 71 94
144 101 252 8 145 -52 273 -169 359 -76 56 -141 75 -284 84 -125 8 -148 18
-186 84 -39 70 -17 158 55 211 24 18 42 21 142 21 l114 0 0 155 c0 99 -5 174
-14 206 -33 123 -116 222 -234 277 -56 26 -80 31 -152 34 -47 1 -102 -2 -123
-7z"/>
</g>
</svg>
